<svg xmlns="http://www.w3.org/2000/svg" xmlns:xlink="http://www.w3.org/1999/xlink" viewBox="0 0 64 64"><defs><style>.cls-1{fill:url(#linear-gradient);}.cls-2{fill:url(#linear-gradient-2);}.cls-3{fill:url(#linear-gradient-3);}</style><linearGradient id="linear-gradient" x1="22.64" y1="32" x2="61" y2="32" gradientUnits="userSpaceOnUse"><stop offset="0" stop-color="#d59647"/><stop offset="0.18" stop-color="#bf853e"/><stop offset="0.74" stop-color="#805526"/><stop offset="1" stop-color="#68421d"/></linearGradient><linearGradient id="linear-gradient-2" x1="22.64" y1="32" x2="61" y2="32" gradientUnits="userSpaceOnUse"><stop offset="0" stop-color="#d7d8d2"/><stop offset="0.3" stop-color="#d7d8d2"/><stop offset="0.35" stop-color="#d7d8d2"/><stop offset="0.55" stop-color="#d5d6cf"/><stop offset="0.68" stop-color="#cdcec7"/><stop offset="0.78" stop-color="#c1c1b9"/><stop offset="0.87" stop-color="#aeaea5"/><stop offset="0.95" stop-color="#97968b"/><stop offset="1" stop-color="#848275"/></linearGradient><linearGradient id="linear-gradient-3" x1="3" y1="32" x2="37.01" y2="32" xlink:href="#linear-gradient-2"/></defs><g id="Layer_66" data-name="Layer 66"><path class="cls-1" d="M60,20.1a1,1,0,0,0,1-1V13.94a1,1,0,0,0-1-1H53V8.77a1,1,0,0,0-1-1H36s-12.37,0-12.39,0a1,1,0,0,0-1,.91,1.05,1.05,0,0,0,.42.92,27,27,0,0,1,0,44.8,1.05,1.05,0,0,0-.42.92,1,1,0,0,0,1,.91s12.37,0,12.39,0H52a1,1,0,0,0,1-1V51.06h7a1,1,0,0,0,1-1V44.9a1,1,0,0,0-1-1H53V40.74h7a1,1,0,0,0,1-1V34.58a1,1,0,0,0-1-1H53V30.42h7a1,1,0,0,0,1-1V24.26a1,1,0,0,0-1-1H53V20.1Z"/><path class="cls-2" d="M60,20.1a1,1,0,0,0,1-1V13.94a1,1,0,0,0-1-1H53V8.77a1,1,0,0,0-1-1H36s-12.37,0-12.39,0a1,1,0,0,0-1,.91,1.05,1.05,0,0,0,.42.92,27,27,0,0,1,0,44.8,1.05,1.05,0,0,0-.42.92,1,1,0,0,0,1,.91s12.37,0,12.39,0H52a1,1,0,0,0,1-1V51.06h7a1,1,0,0,0,1-1V44.9a1,1,0,0,0-1-1H53V40.74h7a1,1,0,0,0,1-1V34.58a1,1,0,0,0-1-1H53V30.42h7a1,1,0,0,0,1-1V24.26a1,1,0,0,0-1-1H53V20.1Zm-1-2H45V14.94H59Zm-23,31H31.44a29.54,29.54,0,0,0,2-3.16H43v3.16ZM35,43.9h-.55c.18-.43.37-.87.55-1.31Zm1.21-5.16a28.24,28.24,0,0,0,.56-3.16H43v3.16ZM43,28.42H36.77a28.24,28.24,0,0,0-.56-3.16H43Zm-8-7c-.17-.45-.36-.89-.56-1.32H35Zm1-3.32H33.44a29.54,29.54,0,0,0-2-3.16H43V18.1Zm15-5.16H37V9.77H51ZM26.59,9.77H35v3.17H29.83A28.53,28.53,0,0,0,26.59,9.77Zm3.24,41.29H35v3.17H26.59A28.53,28.53,0,0,0,29.83,51.06ZM51,54.23H37V51.06H51Zm8-5.17H45V45.9H59ZM51,43.9H37V40.74H51Zm8-5.16H45V35.58H59Zm-8-5.16H37V30.42H51Zm8-5.16H45V25.26H59Zm-8-5.16H37V20.1H51Z"/><path class="cls-3" d="M36.88,29.33a28.94,28.94,0,0,0-6.73-16,28.7,28.7,0,0,0-6-5.36,1,1,0,0,0-.78-.14.9.9,0,0,0-.16,0H4a1,1,0,0,0-1,1V55.23a1,1,0,0,0,1,1H23.63a.92.92,0,0,0,.45-.12A29,29,0,0,0,36.88,29.33Z"/></g></svg>