<svg data-v-fde0c5aa="" xmlns="http://www.w3.org/2000/svg" viewBox="0 0 300 300" class="iconLeft"><!----><defs data-v-fde0c5aa=""><linearGradient data-v-fde0c5aa="" gradientTransform="rotate(25)" id="ffbf6c78-8e90-4164-82f8-f2b0a2209bf2" x1="0%" y1="0%" x2="100%" y2="0%"><stop data-v-fde0c5aa="" offset="0%" stop-color="#DA6E2A" stop-opacity="1"></stop><stop data-v-fde0c5aa="" offset="100%" stop-color="#E39E5A" stop-opacity="1"></stop></linearGradient></defs><rect data-v-fde0c5aa="" fill="url(#ffbf6c78-8e90-4164-82f8-f2b0a2209bf2)" x="0" y="0" width="300px" height="300px" class="logo-background-square"></rect><defs data-v-fde0c5aa=""><!----></defs><g data-v-fde0c5aa="" id="4fbdbed9-b1d3-40d6-8270-4024389dddc5" fill="#ffffff" transform="matrix(1.354623974895386,0,0,1.354623974895386,80.51232332636135,142.0144912093778)"><path d="M8.58-0.42L5.71 10.56L3.12 10.56L0.25-0.42L2.27-0.42L4.42 8.41L6.57-0.42L8.58-0.42ZM9.69 10.50L9.69-0.42L13.03-0.42L13.03-0.42Q16.48-0.42 16.48 2.52L16.48 2.52L16.48 2.80L16.48 2.80Q16.48 4.26 15.26 4.87L15.26 4.87L15.26 4.87Q16.76 5.52 16.76 7.15L16.76 7.15L16.76 7.43L16.76 7.43Q16.76 10.50 13.17 10.50L13.17 10.50L9.69 10.50ZM13.24 5.73L13.24 5.73L11.56 5.73L11.56 8.86L13.24 8.86L13.24 8.86Q13.93 8.86 14.39 8.51L14.39 8.51L14.39 8.51Q14.85 8.16 14.85 7.38L14.85 7.38L14.85 7.22L14.85 7.22Q14.85 6.44 14.39 6.08L14.39 6.08L14.39 6.08Q13.93 5.73 13.24 5.73ZM13.03 1.22L13.03 1.22L11.56 1.22L11.56 4.09L13.03 4.09L13.03 4.09Q14.57 4.09 14.57 2.74L14.57 2.74L14.57 2.56L14.57 2.56Q14.57 1.22 13.03 1.22ZM22.81 4.76L22.81 5.32L22.81 5.32Q22.81 7.24 23.27 8.14L23.27 8.14L23.27 8.14Q23.73 9.04 24.86 9.04L24.86 9.04L24.99 9.04L24.99 9.04Q26.75 9.04 26.75 6.82L26.75 6.82L28.64 6.82L28.64 6.96L28.64 6.96Q28.64 8.88 27.71 9.78L27.71 9.78L27.71 9.78Q26.78 10.68 24.88 10.68L24.88 10.68L24.88 10.68Q22.82 10.68 21.85 9.41L21.85 9.41L21.85 9.41Q20.89 8.13 20.89 5.32L20.89 5.32L20.89 4.76L20.89 4.76Q20.89 1.95 21.85 0.67L21.85 0.67L21.85 0.67Q22.82-0.60 24.88-0.60L24.88-0.60L24.88-0.60Q26.78-0.60 27.71 0.31L27.71 0.31L27.71 0.31Q28.64 1.23 28.64 3.21L28.64 3.21L28.64 3.68L26.75 3.68L26.75 3.68Q26.75 2.32 26.36 1.68L26.36 1.68L26.36 1.68Q25.96 1.04 24.99 1.04L24.99 1.04L24.86 1.04L24.86 1.04Q23.73 1.04 23.27 1.94L23.27 1.94L23.27 1.94Q22.81 2.84 22.81 4.76L22.81 4.76ZM35.62 9.68L35.62 9.68L35.62 9.68Q34.78 10.68 33.10 10.68L33.10 10.68L33.10 10.68Q31.42 10.68 30.58 9.68L30.58 9.68L30.58 9.68Q29.74 8.68 29.74 7.01L29.74 7.01L29.74 6.57L29.74 6.57Q29.74 4.89 30.58 3.89L30.58 3.89L30.58 3.89Q31.42 2.90 33.10 2.90L33.10 2.90L33.10 2.90Q34.78 2.90 35.62 3.89L35.62 3.89L35.62 3.89Q36.46 4.89 36.46 6.57L36.46 6.57L36.46 7.01L36.46 7.01Q36.46 8.68 35.62 9.68ZM31.56 7.01L31.56 7.01Q31.56 9.09 33.10 9.09L33.10 9.09L33.10 9.09Q34.64 9.09 34.64 7.01L34.64 7.01L34.64 6.57L34.64 6.57Q34.64 4.48 33.10 4.48L33.10 4.48L33.10 4.48Q31.56 4.48 31.56 6.57L31.56 6.57L31.56 7.01ZM44.13 5.42L44.13 10.50L42.32 10.50L42.32 5.71L42.32 5.71Q42.32 5.15 42.03 4.82L42.03 4.82L42.03 4.82Q41.73 4.48 41.15 4.48L41.15 4.48L41.15 4.48Q40.12 4.48 39.61 5.33L39.61 5.33L39.61 10.50L37.79 10.50L37.79 5.18L37.66 3.08L39.27 3.08L39.44 4.06L39.44 4.06Q40.24 2.90 41.85 2.90L41.85 2.90L41.85 2.90Q42.99 2.90 43.56 3.61L43.56 3.61L43.56 3.61Q44.13 4.33 44.13 5.42L44.13 5.42ZM48.54 9.27L48.54 9.27L48.54 9.27Q49.17 9.27 49.49 9.02L49.49 9.02L49.49 9.02Q49.81 8.76 49.81 8.34L49.81 8.34L49.81 8.34Q49.81 7.87 49.50 7.67L49.50 7.67L49.50 7.67Q49.20 7.46 48.40 7.39L48.40 7.39L48.40 7.39Q46.86 7.27 46.20 6.80L46.20 6.80L46.20 6.80Q45.54 6.33 45.54 5.35L45.54 5.35L45.54 5.24L45.54 5.24Q45.54 4.09 46.36 3.49L46.36 3.49L46.36 3.49Q47.18 2.90 48.54 2.90L48.54 2.90L48.54 2.90Q51.55 2.90 51.55 5.43L51.55 5.43L51.55 5.50L49.77 5.50L49.77 5.50Q49.77 4.31 48.54 4.31L48.54 4.31L48.54 4.31Q47.96 4.31 47.65 4.55L47.65 4.55L47.65 4.55Q47.33 4.79 47.33 5.19L47.33 5.19L47.33 5.19Q47.33 5.63 47.62 5.83L47.62 5.83L47.62 5.83Q47.91 6.03 48.69 6.09L48.69 6.09L48.69 6.09Q50.20 6.22 50.92 6.66L50.92 6.66L50.92 6.66Q51.63 7.11 51.63 8.18L51.63 8.18L51.63 8.27L51.63 8.27Q51.63 9.39 50.84 10.04L50.84 10.04L50.84 10.04Q50.05 10.68 48.54 10.68L48.54 10.68L48.54 10.68Q47.01 10.68 46.23 10.00L46.23 10.00L46.23 10.00Q45.44 9.31 45.44 8.23L45.44 8.23L45.44 8.18L47.25 8.18L47.25 8.18Q47.25 9.27 48.54 9.27ZM55.50 0.98L55.50 3.08L57.55 3.08L57.55 4.68L55.50 4.68L55.50 7.88L55.50 7.88Q55.50 8.58 55.79 8.83L55.79 8.83L55.79 8.83Q56.08 9.09 56.70 9.09L56.70 9.09L56.70 9.09Q57.22 9.09 57.41 8.99L57.41 8.99L57.41 10.50L57.41 10.50Q57.05 10.68 56.27 10.68L56.27 10.68L56.27 10.68Q53.68 10.68 53.68 8.08L53.68 8.08L53.68 4.68L52.54 4.68L52.54 3.08L53.68 3.08L53.68 0.98L55.50 0.98ZM62.57 2.90L62.57 2.90L62.57 2.90Q62.61 2.90 62.68 2.91L62.68 2.91L62.68 2.91Q62.76 2.91 62.78 2.91L62.78 2.91L62.78 4.68L62.47 4.68L62.47 4.68Q61.26 4.68 60.75 5.46L60.75 5.46L60.75 10.50L58.93 10.50L58.93 5.18L58.80 3.08L60.41 3.08L60.56 3.98L60.56 3.98Q61.31 2.90 62.57 2.90ZM63.99 8.15L63.99 3.08L65.80 3.08L65.80 7.87L65.80 7.87Q65.80 9.09 66.99 9.09L66.99 9.09L66.99 9.09Q68.00 9.09 68.53 8.25L68.53 8.25L68.53 3.08L70.35 3.08L70.35 8.40L70.46 10.50L68.85 10.50L68.68 9.52L68.68 9.52Q67.89 10.68 66.28 10.68L66.28 10.68L66.28 10.68Q65.13 10.68 64.56 9.97L64.56 9.97L64.56 9.97Q63.99 9.25 63.99 8.15L63.99 8.15ZM73.47 6.57L73.47 7.01L73.47 7.01Q73.47 9.09 74.97 9.09L74.97 9.09L74.97 9.09Q75.63 9.09 75.96 8.73L75.96 8.73L75.96 8.73Q76.29 8.37 76.29 7.80L76.29 7.80L78.01 7.80L78.01 8.09L78.01 8.09Q78.01 9.23 77.22 9.95L77.22 9.95L77.22 9.95Q76.43 10.68 74.93 10.68L74.93 10.68L74.93 10.68Q73.29 10.68 72.47 9.68L72.47 9.68L72.47 9.68Q71.65 8.68 71.65 7.01L71.65 7.01L71.65 6.57L71.65 6.57Q71.65 4.89 72.47 3.89L72.47 3.89L72.47 3.89Q73.29 2.90 74.93 2.90L74.93 2.90L74.93 2.90Q76.44 2.90 77.22 3.65L77.22 3.65L77.22 3.65Q78.01 4.41 78.01 5.60L78.01 5.60L78.01 5.91L76.29 5.91L76.29 5.91Q76.29 5.24 75.96 4.86L75.96 4.86L75.96 4.86Q75.63 4.48 74.97 4.48L74.97 4.48L74.97 4.48Q73.47 4.48 73.47 6.57L73.47 6.57ZM81.77 0.98L81.77 3.08L83.83 3.08L83.83 4.68L81.77 4.68L81.77 7.88L81.77 7.88Q81.77 8.58 82.07 8.83L82.07 8.83L82.07 8.83Q82.36 9.09 82.98 9.09L82.98 9.09L82.98 9.09Q83.50 9.09 83.69 8.99L83.69 8.99L83.69 10.50L83.69 10.50Q83.33 10.68 82.54 10.68L82.54 10.68L82.54 10.68Q79.95 10.68 79.95 8.08L79.95 8.08L79.95 4.68L78.82 4.68L78.82 3.08L79.95 3.08L79.95 0.98L81.77 0.98ZM87.05 10.50L85.23 10.50L85.23 3.08L87.05 3.08L87.05 10.50ZM85.15-0.18L87.14-0.18L87.14 1.79L85.15 1.79L85.15-0.18ZM94.28 9.68L94.28 9.68L94.28 9.68Q93.44 10.68 91.76 10.68L91.76 10.68L91.76 10.68Q90.08 10.68 89.24 9.68L89.24 9.68L89.24 9.68Q88.40 8.68 88.40 7.01L88.40 7.01L88.40 6.57L88.40 6.57Q88.40 4.89 89.24 3.89L89.24 3.89L89.24 3.89Q90.08 2.90 91.76 2.90L91.76 2.90L91.76 2.90Q93.44 2.90 94.28 3.89L94.28 3.89L94.28 3.89Q95.12 4.89 95.12 6.57L95.12 6.57L95.12 7.01L95.12 7.01Q95.12 8.68 94.28 9.68ZM90.22 7.01L90.22 7.01Q90.22 9.09 91.76 9.09L91.76 9.09L91.76 9.09Q93.30 9.09 93.30 7.01L93.30 7.01L93.30 6.57L93.30 6.57Q93.30 4.48 91.76 4.48L91.76 4.48L91.76 4.48Q90.22 4.48 90.22 6.57L90.22 6.57L90.22 7.01ZM102.79 5.42L102.79 10.50L100.98 10.50L100.98 5.71L100.98 5.71Q100.98 5.15 100.69 4.82L100.69 4.82L100.69 4.82Q100.39 4.48 99.81 4.48L99.81 4.48L99.81 4.48Q98.78 4.48 98.27 5.33L98.27 5.33L98.27 10.50L96.45 10.50L96.45 5.18L96.32 3.08L97.93 3.08L98.10 4.06L98.10 4.06Q98.90 2.90 100.51 2.90L100.51 2.90L100.51 2.90Q101.65 2.90 102.22 3.61L102.22 3.61L102.22 3.61Q102.79 4.33 102.79 5.42L102.79 5.42ZM104.27 8.53L106.26 8.53L106.26 10.08L106.26 10.08Q106.26 12.39 104.12 12.39L104.12 12.39L104.12 11.44L104.12 11.44Q105.11 11.44 105.28 10.50L105.28 10.50L104.27 10.50L104.27 8.53ZM116.76 8.86L116.76 10.50L110.67 10.50L110.67-0.42L112.55-0.42L112.55 8.86L116.76 8.86ZM123.91 8.86L123.91 10.50L117.82 10.50L117.82-0.42L119.70-0.42L119.70 8.86L123.91 8.86ZM126.66 4.76L126.66 5.32L126.66 5.32Q126.66 7.24 127.12 8.14L127.12 8.14L127.12 8.14Q127.58 9.04 128.72 9.04L128.72 9.04L128.84 9.04L128.84 9.04Q130.61 9.04 130.61 6.82L130.61 6.82L132.50 6.82L132.50 6.96L132.50 6.96Q132.50 8.88 131.56 9.78L131.56 9.78L131.56 9.78Q130.63 10.68 128.73 10.68L128.73 10.68L128.73 10.68Q126.67 10.68 125.71 9.41L125.71 9.41L125.71 9.41Q124.74 8.13 124.74 5.32L124.74 5.32L124.74 4.76L124.74 4.76Q124.74 1.95 125.71 0.67L125.71 0.67L125.71 0.67Q126.67-0.60 128.73-0.60L128.73-0.60L128.73-0.60Q130.63-0.60 131.56 0.31L131.56 0.31L131.56 0.31Q132.50 1.23 132.50 3.21L132.50 3.21L132.50 3.68L130.61 3.68L130.61 3.68Q130.61 2.32 130.21 1.68L130.21 1.68L130.21 1.68Q129.81 1.04 128.84 1.04L128.84 1.04L128.72 1.04L128.72 1.04Q127.58 1.04 127.12 1.94L127.12 1.94L127.12 1.94Q126.66 2.84 126.66 4.76L126.66 4.76Z"></path></g><defs data-v-fde0c5aa=""><!----></defs><g data-v-fde0c5aa="" id="9e5af7e8-9257-4c52-b2ef-1222a3bb6e16" stroke="none" fill="#ffffff" transform="matrix(0.2785139792401213,0,0,0.2785139792401213,43.04875322487945,138.04113788421628)"><path d="M42.361 23.924L53.197 35.06 4.743 88.629c-2.107 2.259-5.872 2.259-8.13 0l-5.866-6.018c-2.258-2.106-2.258-5.868 0-8.124l51.614-50.563zM87.812 35.359l-8.13 8.278c-1.653 1.656-4.214 1.656-6.018 0l-1.805-1.955c-1.355-1.205-1.961-3.463-1.204-4.516 1.35-.902.902-3.611-1.659-6.021-3.607-3.762-8.275-3.911-10.079-1.956-.751.603-3.16 3.16-3.16 3.16L44.619 21.366l1.81-1.807s.448-.451 1.351-1.504c3.463-3.462-.151-7.374-.151-7.374-9.777-9.631-23.471-9.48-23.471-9.48l-.151-3.463c27.539-7.074 37.921 4.967 41.687 8.729 3.456 3.46 7.07 7.071 7.973 7.976 1.955 1.955 0 7.521 2.857 10.685 1.355 1.353 3.16 1.956 4.516 1.956 1.508-1.353 3.911-.902 5.115.451l1.659 1.807c1.651 1.656 1.651 4.213-.002 6.017z"></path></g><!----></svg>